<svg id="Layer_1" data-name="Layer 1" xmlns="http://www.w3.org/2000/svg" viewBox="0 0 97 31"><defs><style>.cls-1{fill:#fff;stroke:#002440;stroke-width:1.5px;}</style></defs><title>Logo-Footer-5</title><g id="Symbols"><g id="Logo-Header-3"><g id="Logo-Header-2"><g id="mark-2-path"><path class="cls-1" d="M19.52,5.65H12.84A6.91,6.91,0,0,0,5.9,12.57v6.68a6.91,6.91,0,0,0,6.91,6.91h6.68a6.91,6.91,0,0,0,6.91-6.92V12.57A6.91,6.91,0,0,0,19.52,5.65Zm-6.75,7.47A2,2,0,1,1,13,10.6,2,2,0,0,1,12.77,13.12Zm6.63,9.69a3.5,3.5,0,1,1,3.5-3.5A3.5,3.5,0,0,1,19.4,22.81Z"/></g><path id="Shape" class="cls-1" d="M87.65,16.86a7.08,7.08,0,0,0-1.47-4.71A5.25,5.25,0,0,0,82,10.36a5.84,5.84,0,0,0-4.5,2,7.3,7.3,0,0,0-1.81,5.08,7.42,7.42,0,0,0,1.64,5.1,5.81,5.81,0,0,0,4.56,1.89,7.69,7.69,0,0,0,4.62-1.29l.31-.22V19.17l-1.21,1a5.15,5.15,0,0,1-3.26,1.18A3,3,0,0,1,80,20.49a3.29,3.29,0,0,1-.81-1.83h8.44Zm-8.26-1.37a3.33,3.33,0,0,1,.77-1.27,2.36,2.36,0,0,1,1.77-.75,2,2,0,0,1,1.63.66,2.67,2.67,0,0,1,.57,1.35Z"/><path id="Shape-2" data-name="Shape" class="cls-1" d="M56.54,18.3a3.23,3.23,0,0,1-.72,2.22,2.19,2.19,0,0,1-1.75.78c-1.47,0-2.16-.89-2.16-3V10.64H48.5v7.92c0,3.79,1.73,5.86,5,5.86a4.81,4.81,0,0,0,3-.94v.66h3.42V10.64H56.54Z"/><path id="Shape-3" data-name="Shape" class="cls-1" d="M71,11.2l-.07.15a4.92,4.92,0,0,0-2.8-1,5.61,5.61,0,0,0-4.59,2.09,8.28,8.28,0,0,0-1.63,5.35,7.19,7.19,0,0,0,1.53,4.8,5.21,5.21,0,0,0,4.16,1.87A5.67,5.67,0,0,0,71,23.06c-.1,2.5-1.25,3.63-3.65,3.63a7.16,7.16,0,0,1-3.48-1l-1.12-.63v3.67l.41.21a9.12,9.12,0,0,0,4.21.93c4.62,0,7-2.56,7-7.39V10.59H71ZM71,18a3.58,3.58,0,0,1-.82,2.46,2.56,2.56,0,0,1-2,.9,2.35,2.35,0,0,1-2-.92,4.29,4.29,0,0,1-.8-2.75,5.13,5.13,0,0,1,.85-3.18,2.56,2.56,0,0,1,2.18-1,2.4,2.4,0,0,1,1.85.79,2.72,2.72,0,0,1,.76,2Z"/><path id="Shape-4" data-name="Shape" class="cls-1" d="M41.83,10.36a5.06,5.06,0,0,0-3.23,1.07v-.79H35.18v13.5H38.6V16.55a3.27,3.27,0,0,1,.76-2.24,2.28,2.28,0,0,1,1.82-.83c1.39,0,2,.9,2,3.07v7.59h3.47V16.06a6.37,6.37,0,0,0-1.21-4.15A4.41,4.41,0,0,0,41.83,10.36Z"/><path id="Shape-5" data-name="Shape" class="cls-1" d="M96.09,13.78V10.64h-3V6.81l-3.44,1.1v2.73H87.58v3.14h2.07v6.35c0,2.74,1.37,4.27,3.9,4.27a4.42,4.42,0,0,0,2.16-.47l.39-.21V20.13L94.9,21a1.27,1.27,0,0,1-.8.25c-.42,0-.66-.09-.77-.23a2.23,2.23,0,0,1-.25-1.26v-6Z"/><g id="Oval"><circle id="path-2" class="cls-1" cx="3.65" cy="4.06" r="2"/><circle class="cls-1" cx="3.65" cy="4.06" r="2.75"/></g></g></g></g></svg>